<?xml version="1.0" encoding="UTF-8" standalone="no"?>
<svg
   class="img-fluid"
   id="outputsvg"
   style="transform: none; transform-origin: 50% 50%; cursor: move; max-height: none;"
   width="778"
   height="816"
   viewBox="0 0 7780 8160"
   version="1.1"
   sodipodi:docname="logo.svg"
   inkscape:version="1.4.4 (dcaf3e7d9e, 2026-05-05)"
   xmlns:inkscape="http://www.inkscape.org/namespaces/inkscape"
   xmlns:sodipodi="http://sodipodi.sourceforge.net/DTD/sodipodi-0.dtd"
   xmlns="http://www.w3.org/2000/svg"
   xmlns:svg="http://www.w3.org/2000/svg">
  <defs
     id="defs3" />
  <sodipodi:namedview
     id="namedview3"
     pagecolor="#505050"
     bordercolor="#eeeeee"
     borderopacity="1"
     inkscape:showpageshadow="0"
     inkscape:pageopacity="0"
     inkscape:pagecheckerboard="0"
     inkscape:deskcolor="#505050"
     inkscape:zoom="0.98406863"
     inkscape:cx="294.69489"
     inkscape:cy="368.36862"
     inkscape:window-width="1920"
     inkscape:window-height="1011"
     inkscape:window-x="0"
     inkscape:window-y="0"
     inkscape:window-maximized="1"
     inkscape:current-layer="outputsvg" />
  <g
     id="g3"
     transform="matrix(0.18793918,0,0,0.18793918,9949.8553,3099.3487)">
    <path
       id="pvyzIqAnY"
       d="m -28990.859,11609.938 c -140,-60 -540,-180 -900,-280 -2610,-720 -3500,-990 -3880,-1190 -1390,-710 -940,-2440 840,-3220 700,-310 1720,-230 2470,190 l 550,310 160,-460 c 490,-1430 1520,-2230 2870,-2230 970,0 1570,450 1660,1230 80,680 -100,1000 -3010,5600 -120,190 -380,210 -760,50 z"
       style="fill:#e72027;stroke-width:10" />
    <path
       id="phhnrJNv7"
       d="m -38750.859,23409.938 c -970,-2060 -3110,-4870 -6490,-8530 -4270,-4620 -6110,-7490 -6850,-10680 -900,-3920 1220,-7230 5460,-8530 830,-260 1010,-280 2740,-280 1630,0 1950,30 2650,230 3420,970 5750,3410 5750,6020 v 540 l 360,-550 c 1450,-2210 3520,-3390 6530,-3710 2880,-310 5620,610 7730,2590 1120,1060 1770,2220 2050,3670 170,930 160,1320 -60,2410 -380,1840 -1420,3570 -3200,5350 -1850,1840 -3590,3090 -8410,6070 -1350,830 -2810,1750 -3250,2060 -770,530 -800,540 -1080,400 -790,-410 -340,-1130 1650,-2610 1040,-780 1950,-1400 5380,-3650 3460,-2280 4900,-3510 5900,-5040 610,-940 880,-1660 1030,-2710 140,-1070 0,-1720 -550,-2540 -840,-1250 -2910,-2530 -4930,-3040 -1180,-300 -3030,-350 -4000,-100 -5170,1300 -9380,9900 -9000,18390 100,2360 280,3000 1050,3750 220,210 400,430 400,490 0,90 -460,620 -540,620 -10,0 -160,-280 -320,-620 z m -8720,-13850 c 310,-280 230,-800 -230,-1480 -870,-1280 -1220,-2220 -1350,-3680 -50,-520 -120,-810 -210,-840 -70,-30 -430,-20 -780,20 l -650,70 v 350 c 0,900 620,2650 1350,3790 470,730 1460,1940 1590,1940 50,0 180,-70 280,-170 z m -1680,-6650 c 20,-70 90,-420 150,-780 70,-360 280,-1040 470,-1510 230,-590 340,-1030 340,-1370 0,-510 -10,-520 -520,-870 -290,-190 -580,-350 -640,-350 -310,0 -1160,1740 -1340,2730 -120,650 -190,1830 -110,1960 40,50 330,140 660,190 850,140 950,140 990,0 z"
       style="fill:#303190;stroke-width:10" />
    <path
       id="p12f3SXW5d"
       d="m -17390.859,4899.938 c -670,-310 -1100,-910 -1100,-1540 0,-470 450,-1810 780,-2330 400,-630 1090,-1210 2000,-1680 1380,-720 2120,-780 2770,-210 500,440 680,1000 630,2010 -50,1110 -390,1870 -1170,2610 -630,600 -1080,870 -1900,1110 -630,180 -1640,200 -2010,30 z"
       style="fill:#303190;stroke-width:10" />
    <path
       id="pV1hZ4zka"
       d="m -19530.859,-550.062 c -800,-610 -1560,-2210 -1560,-3290 0,-470 40,-580 370,-930 420,-480 1780,-1520 2340,-1800 490,-260 800,-250 1600,20 500,170 760,340 1200,780 480,470 590,650 690,1130 250,1120 -160,2240 -1210,3290 -830,840 -1500,1180 -2340,1180 -540,0 -650,-40 -1090,-380 z"
       style="fill:#303190;stroke-width:10" />
    <path
       id="pnzPOFbU4"
       d="m -33470.859,-2040.062 c -820,-400 -1370,-1530 -1360,-2780 20,-2150 1560,-3420 4030,-3330 850,30 1050,70 1560,330 400,200 690,450 900,740 260,370 300,510 300,1090 0,550 -60,770 -300,1200 -520,960 -1950,2070 -3420,2680 -680,280 -1250,300 -1710,70 z"
       style="fill:#303190;stroke-width:10" />
    <path
       id="pZ9h5iOBa"
       d="m -25340.859,-3520.062 c -1360,-480 -1740,-2510 -850,-4520 290,-650 1110,-1460 1870,-1830 560,-280 770,-330 1420,-330 1950,-10 2620,750 2410,2740 -40,460 -180,1100 -300,1420 -410,1090 -1740,2160 -3150,2530 -630,170 -890,170 -1400,-10 z"
       style="fill:#303190;stroke-width:10" />
  </g>
  <path
     style="display:none;fill:#ffffff;stroke-width:0.508095"
     d="m 56.832747,365.04822 c -8.125017,-1.30708 -13.107562,-2.47288 -15.20534,-3.55768 -1.151663,-0.59555 -1.401041,-1.1355 -1.685453,-3.64938 -0.635784,-5.61959 1.24821,-27.7388 3.041511,-35.70915 4.33537,-19.26861 19.177641,-48.77709 24.534059,-48.77709 1.542507,0 10.32909,5.08254 15.80681,9.14334 4.862103,3.60443 5.566139,5.11989 5.58107,12.01348 0.01849,8.53767 -0.759672,11.58411 -8.611411,33.71286 -3.637136,10.25063 -5.793024,18.14767 -7.671674,28.1014 -0.906144,4.80106 -1.933582,8.85789 -2.34843,9.27273 -1.02417,1.02417 -4.550544,0.87975 -13.441142,-0.55051 z"
     id="path3"
     transform="scale(10)" />
  <path
     style="display:none;fill:#ffffff;stroke-width:0.508095"
     d="M 92.958161,488.40598 C 80.846759,475.44706 67.677146,457.12447 60.835934,443.71504 49.560663,421.61443 42.687675,399.03504 42.681993,384.07505 l -0.002,-5.3795 8.256538,-0.85272 c 4.541096,-0.46899 10.5654,-0.84909 13.387342,-0.84466 l 5.130803,0.008 0.832227,1.90535 c 1.185994,2.71529 1.693813,5.44905 2.619137,14.09963 3.002525,28.06975 8.972093,44.44701 24.805882,68.05389 3.760398,5.60645 7.172768,12.77092 7.977658,16.74957 1.09092,5.39253 -0.38392,9.66266 -4.39519,12.7255 -1.299111,0.99195 -2.878162,1.80354 -3.509002,1.80354 -0.775337,0 -2.339441,-1.2759 -4.827184,-3.93773 z"
     id="path4"
     transform="scale(10)"
     inkscape:label="path4" />
</svg>
